<?xml version="1.0" encoding="UTF-8"?>
<!DOCTYPE svg PUBLIC "-//W3C//DTD SVG 1.1//EN" "http://www.w3.org/Graphics/SVG/1.1/DTD/svg11.dtd">
<svg xmlns="http://www.w3.org/2000/svg" version="1.1" width="553px" height="451px" style="shape-rendering:geometricPrecision; text-rendering:geometricPrecision; image-rendering:optimizeQuality; fill-rule:evenodd; clip-rule:evenodd" xmlns:xlink="http://www.w3.org/1999/xlink">
<g><path style="opacity:0.004" fill="#fefffe" d="M 107.5,3.5 C 108.833,4.16667 108.833,4.16667 107.5,3.5 Z"/></g>
<g><path style="opacity:0.004" fill="#fefffe" d="M 267.5,4.5 C 268.833,5.16667 268.833,5.16667 267.5,4.5 Z"/></g>
<g><path style="opacity:0.004" fill="#fefffe" d="M 230.5,11.5 C 231.833,12.1667 231.833,12.1667 230.5,11.5 Z"/></g>
<g><path style="opacity:0.004" fill="#fefffe" d="M 136.5,16.5 C 137.833,17.1667 137.833,17.1667 136.5,16.5 Z"/></g>
<g><path style="opacity:0.004" fill="#fefffe" d="M 216.5,18.5 C 217.833,19.1667 217.833,19.1667 216.5,18.5 Z"/></g>
<g><path style="opacity:0.004" fill="#fefffe" d="M 194.5,24.5 C 195.833,25.1667 195.833,25.1667 194.5,24.5 Z"/></g>
<g><path style="opacity:0.004" fill="#fefffe" d="M 111.5,25.5 C 112.833,26.1667 112.833,26.1667 111.5,25.5 Z"/></g>
<g><path style="opacity:0.004" fill="#fefffe" d="M 246.5,26.5 C 247.833,27.1667 247.833,27.1667 246.5,26.5 Z"/></g>
<g><path style="opacity:0.004" fill="#fefffe" d="M 265.5,32.5 C 266.833,33.1667 266.833,33.1667 265.5,32.5 Z"/></g>
<g><path style="opacity:0.004" fill="#fefffe" d="M 273.5,33.5 C 274.833,34.1667 274.833,34.1667 273.5,33.5 Z"/></g>
<g><path style="opacity:0.004" fill="#fefffe" d="M 545.5,35.5 C 546.833,36.1667 546.833,36.1667 545.5,35.5 Z"/></g>
<g><path style="opacity:0.004" fill="#fefffe" d="M 387.5,36.5 C 388.833,37.1667 388.833,37.1667 387.5,36.5 Z"/></g>
<g><path style="opacity:0.004" fill="#fefffe" d="M 146.5,42.5 C 147.833,43.1667 147.833,43.1667 146.5,42.5 Z"/></g>
<g><path style="opacity:0.004" fill="#fefffe" d="M 420.5,49.5 C 421.833,50.1667 421.833,50.1667 420.5,49.5 Z"/></g>
<g><path style="opacity:0.004" fill="#fefffe" d="M 358.5,50.5 C 359.833,51.1667 359.833,51.1667 358.5,50.5 Z"/></g>
<g><path style="opacity:0.004" fill="#fefffe" d="M 248.5,52.5 C 249.833,53.1667 249.833,53.1667 248.5,52.5 Z"/></g>
<g><path style="opacity:0.004" fill="#fefffe" d="M 76.5,57.5 C 77.8333,58.1667 77.8333,58.1667 76.5,57.5 Z"/></g>
<g><path style="opacity:0.004" fill="#fefffe" d="M 204.5,62.5 C 205.833,63.1667 205.833,63.1667 204.5,62.5 Z"/></g>
<g><path style="opacity:0.004" fill="#fefffe" d="M 140.5,77.5 C 141.833,78.1667 141.833,78.1667 140.5,77.5 Z"/></g>
<g><path style="opacity:0.004" fill="#fefffe" d="M 423.5,86.5 C 424.833,87.1667 424.833,87.1667 423.5,86.5 Z"/></g>
<g><path style="opacity:0.004" fill="#fefffe" d="M 516.5,90.5 C 517.833,91.1667 517.833,91.1667 516.5,90.5 Z"/></g>
<g><path style="opacity:0.004" fill="#fefffe" d="M 243.5,93.5 C 244.833,94.1667 244.833,94.1667 243.5,93.5 Z"/></g>
<g><path style="opacity:0.004" fill="#fefffe" d="M 171.5,104.5 C 172.833,105.167 172.833,105.167 171.5,104.5 Z"/></g>
<g><path style="opacity:0.004" fill="#fefffe" d="M 550.5,109.5 C 551.833,110.167 551.833,110.167 550.5,109.5 Z"/></g>
<g><path style="opacity:0.004" fill="#fefffe" d="M 515.5,110.5 C 516.833,111.167 516.833,111.167 515.5,110.5 Z"/></g>
<g><path style="opacity:0.004" fill="#fefffe" d="M 509.5,114.5 C 510.833,115.167 510.833,115.167 509.5,114.5 Z"/></g>
<g><path style="opacity:0.004" fill="#fefffe" d="M 153.5,115.5 C 154.833,116.167 154.833,116.167 153.5,115.5 Z"/></g>
<g><path style="opacity:0.004" fill="#fefffe" d="M 539.5,115.5 C 540.833,116.167 540.833,116.167 539.5,115.5 Z"/></g>
<g><path style="opacity:0.004" fill="#fefffe" d="M 530.5,116.5 C 531.833,117.167 531.833,117.167 530.5,116.5 Z"/></g>
<g><path style="opacity:0.004" fill="#fefffe" d="M 369.5,124.5 C 370.833,125.167 370.833,125.167 369.5,124.5 Z"/></g>
<g><path style="opacity:0.004" fill="#fefffe" d="M 409.5,125.5 C 410.833,126.167 410.833,126.167 409.5,125.5 Z"/></g>
<g><path style="opacity:0.004" fill="#fefffe" d="M 424.5,129.5 C 425.833,130.167 425.833,130.167 424.5,129.5 Z"/></g>
<g><path style="opacity:0.004" fill="#fefffe" d="M 344.5,145.5 C 345.833,146.167 345.833,146.167 344.5,145.5 Z"/></g>
<g><path style="opacity:0.004" fill="#fefffe" d="M 399.5,145.5 C 400.833,146.167 400.833,146.167 399.5,145.5 Z"/></g>
<g><path style="opacity:0.887" fill="#161616" d="M 210.5,149.5 C 220.653,150.494 230.986,150.828 241.5,150.5C 241.5,198.5 241.5,246.5 241.5,294.5C 193.167,294.5 144.833,294.5 96.5,294.5C 95.3351,246.668 95.1684,198.668 96,150.5C 134.094,149.504 172.261,149.17 210.5,149.5 Z M 101.5,155.5 C 146.5,155.5 191.5,155.5 236.5,155.5C 236.5,200.167 236.5,244.833 236.5,289.5C 228.833,289.5 221.167,289.5 213.5,289.5C 213.667,273.497 213.5,257.497 213,241.5C 211.67,240.418 210.17,239.751 208.5,239.5C 208.5,238.167 207.833,237.5 206.5,237.5C 205.027,236.26 203.36,235.26 201.5,234.5C 200.833,223.5 200.167,212.5 199.5,201.5C 195.45,197.12 191.45,192.787 187.5,188.5C 187.262,186.596 186.262,185.262 184.5,184.5C 178.904,177.73 173.071,171.064 167,164.5C 166.667,164.833 166.333,165.167 166,165.5C 165.832,174.851 165.332,184.184 164.5,193.5C 156.16,201.84 147.493,209.84 138.5,217.5C 137.671,222.467 137.171,227.467 137,232.5C 133.254,235.29 129.421,237.957 125.5,240.5C 124.501,256.82 124.167,273.153 124.5,289.5C 116.833,289.5 109.167,289.5 101.5,289.5C 101.5,244.833 101.5,200.167 101.5,155.5 Z M 173.5,180.5 C 180.5,188.5 187.5,196.5 194.5,204.5C 194.826,213.017 194.493,221.35 193.5,229.5C 190.853,227.836 188.187,226.169 185.5,224.5C 185.027,223.094 184.027,222.427 182.5,222.5C 181.811,221.226 180.977,221.226 180,222.5C 179.5,244.831 179.333,267.164 179.5,289.5C 177.167,289.5 174.833,289.5 172.5,289.5C 172.468,253.138 172.801,216.805 173.5,180.5 Z M 164.5,201.5 C 165.493,210.318 165.827,219.318 165.5,228.5C 165.5,248.833 165.5,269.167 165.5,289.5C 162.833,289.5 160.167,289.5 157.5,289.5C 157.833,266.49 157.5,243.49 156.5,220.5C 152.418,223.291 148.251,225.958 144,228.5C 143.182,225.773 143.348,223.106 144.5,220.5C 151.187,214.145 157.854,207.812 164.5,201.5 Z M 144.5,289.5 C 143.503,271.674 143.17,253.674 143.5,235.5C 146.525,234.235 149.358,232.568 152,230.5C 152.5,250.164 152.667,269.831 152.5,289.5C 149.833,289.5 147.167,289.5 144.5,289.5 Z M 185.5,231.5 C 188.223,233.281 191.057,234.948 194,236.5C 194.5,254.164 194.667,271.83 194.5,289.5C 191.5,289.5 188.5,289.5 185.5,289.5C 185.5,270.167 185.5,250.833 185.5,231.5 Z M 136.5,240.5 C 137.496,255.324 137.829,270.324 137.5,285.5C 137.5,286.833 137.5,288.167 137.5,289.5C 134.833,289.5 132.167,289.5 129.5,289.5C 129.333,274.496 129.5,259.496 130,244.5C 132.052,242.942 134.219,241.608 136.5,240.5 Z M 207.5,244.5 C 207.5,259.5 207.5,274.5 207.5,289.5C 205.167,289.5 202.833,289.5 200.5,289.5C 200.333,273.163 200.5,256.83 201,240.5C 202.638,242.734 204.805,244.067 207.5,244.5 Z"/></g>
<g><path style="opacity:0.004" fill="#fefffe" d="M 80.5,158.5 C 81.8333,159.167 81.8333,159.167 80.5,158.5 Z"/></g>
<g><path style="opacity:0.004" fill="#fefffe" d="M 78.5,170.5 C 79.8333,171.167 79.8333,171.167 78.5,170.5 Z"/></g>
<g><path style="opacity:0.008" fill="#fefefe" d="M 173.5,180.5 C 172.801,216.805 172.468,253.138 172.5,289.5C 171.336,252.669 171.169,215.669 172,178.5C 172.717,179.044 173.217,179.711 173.5,180.5 Z"/></g>
<g><path style="opacity:0.004" fill="#fefffe" d="M 410.5,182.5 C 411.833,183.167 411.833,183.167 410.5,182.5 Z"/></g>
<g><path style="opacity:0.004" fill="#fefffe" d="M 78.5,184.5 C 79.8333,185.167 79.8333,185.167 78.5,184.5 Z"/></g>
<g><path style="opacity:0.314" fill="#7c7c7c" d="M 184.5,184.5 C 186.262,185.262 187.262,186.596 187.5,188.5C 185.738,187.738 184.738,186.404 184.5,184.5 Z"/></g>
<g><path style="opacity:0.004" fill="#fefffe" d="M 84.5,186.5 C 85.8333,187.167 85.8333,187.167 84.5,186.5 Z"/></g>
<g><path style="opacity:0.063" fill="#c9c9c9" d="M 101.5,155.5 C 146.664,154.501 191.997,154.168 237.5,154.5C 237.832,199.67 237.499,244.67 236.5,289.5C 236.5,244.833 236.5,200.167 236.5,155.5C 191.5,155.5 146.5,155.5 101.5,155.5 Z"/></g>
<g><path style="opacity:0.004" fill="#fefffe" d="M 8.5,193.5 C 9.83333,194.167 9.83333,194.167 8.5,193.5 Z"/></g>
<g><path style="opacity:0.012" fill="#fafafa" d="M 164.5,201.5 C 164.56,200.957 164.893,200.624 165.5,200.5C 166.822,209.992 166.822,219.325 165.5,228.5C 165.827,219.318 165.493,210.318 164.5,201.5 Z"/></g>
<g><path style="opacity:0.951" fill="#080808" d="M 269.5,231.5 C 274.64,232.488 279.974,232.821 285.5,232.5C 285.5,233.833 285.5,235.167 285.5,236.5C 277.833,236.5 270.167,236.5 262.5,236.5C 262.5,224.833 262.5,213.167 262.5,201.5C 264.5,201.5 266.5,201.5 268.5,201.5C 268.173,211.681 268.506,221.681 269.5,231.5 Z"/></g>
<g><path style="opacity:0.463" fill="#2f2f2f" d="M 194.5,204.5 C 195.821,213.009 195.821,221.675 194.5,230.5C 193.893,230.376 193.56,230.043 193.5,229.5C 194.493,221.35 194.826,213.017 194.5,204.5 Z"/></g>
<g><path style="opacity:0.004" fill="#fefffe" d="M 340.5,208.5 C 341.833,209.167 341.833,209.167 340.5,208.5 Z"/></g>
<g><path style="opacity:0.004" fill="#fefffe" d="M 343.5,209.5 C 344.833,210.167 344.833,210.167 343.5,209.5 Z"/></g>
<g><path style="opacity:0.923" fill="#202020" d="M 301.5,231.5 C 303.027,231.573 304.027,230.906 304.5,229.5C 304.5,223.167 304.5,216.833 304.5,210.5C 306.5,210.5 308.5,210.5 310.5,210.5C 310.5,219.167 310.5,227.833 310.5,236.5C 308.833,236.5 307.167,236.5 305.5,236.5C 305.289,234.576 304.623,234.243 303.5,235.5C 298.607,237.272 294.107,236.605 290,233.5C 288.568,225.946 288.068,218.279 288.5,210.5C 290.5,210.5 292.5,210.5 294.5,210.5C 294.334,216.842 294.5,223.175 295,229.5C 296.855,231.876 299.022,232.543 301.5,231.5 Z"/></g>
<g><path style="opacity:0.913" fill="#222222" d="M 330.5,229.5 C 332.591,228.135 334.924,227.468 337.5,227.5C 337.276,231.562 335.276,234.395 331.5,236C 317.197,237.953 311.697,231.786 315,217.5C 318.608,210.926 324.108,208.759 331.5,211C 335.447,212.589 337.28,215.422 337,219.5C 336.107,220.081 335.107,220.415 334,220.5C 331.862,219.413 330.028,217.913 328.5,216C 322.881,215.113 320.215,217.613 320.5,223.5C 320.299,227.768 322.132,230.768 326,232.5C 327.652,231.601 329.152,230.601 330.5,229.5 Z"/></g>
<g><path style="opacity:0.928" fill="#1d1d1d" d="M 353.5,231.5 C 355.027,231.573 356.027,230.906 356.5,229.5C 357.918,227.692 359.918,227.025 362.5,227.5C 362.323,231.526 360.323,234.359 356.5,236C 341.532,238.591 335.699,232.424 339,217.5C 342.765,211.24 348.265,209.073 355.5,211C 361.834,213.681 364.167,218.348 362.5,225C 356.472,225.17 350.472,225.67 344.5,226.5C 346.42,230.62 349.42,232.286 353.5,231.5 Z M 353.5,215.5 C 353.973,216.906 354.973,217.573 356.5,217.5C 356.5,218.5 356.5,219.5 356.5,220.5C 352.486,220.666 348.486,220.499 344.5,220C 346.378,216.394 349.378,214.894 353.5,215.5 Z"/></g>
<g><path style="opacity:0.886" fill="#191919" d="M 368.5,210.5 C 369.5,210.5 370.5,210.5 371.5,210.5C 371.345,213.853 372.012,214.186 373.5,211.5C 378.993,209.496 383.827,210.496 388,214.5C 388.5,221.826 388.666,229.159 388.5,236.5C 386.5,236.5 384.5,236.5 382.5,236.5C 382.666,230.158 382.5,223.825 382,217.5C 378.706,214.689 375.706,215.022 373,218.5C 372.501,224.491 372.334,230.491 372.5,236.5C 370.833,236.5 369.167,236.5 367.5,236.5C 367.197,227.749 367.53,219.082 368.5,210.5 Z"/></g>
<g><path style="opacity:0.892" fill="#232323" d="M 399.5,210.5 C 414.192,209.542 419.692,216.208 416,230.5C 414.749,233.381 412.583,235.214 409.5,236C 396.219,238.386 390.386,232.886 392,219.5C 392.951,215.061 395.451,212.061 399.5,210.5 Z M 401.5,215.5 C 409.421,215.635 412.255,219.635 410,227.5C 406.582,233.089 402.916,233.423 399,228.5C 397.743,223.617 398.576,219.284 401.5,215.5 Z"/></g>
<g><path style="opacity:0.879" fill="#272727" d="M 419.5,210.5 C 424.066,211.184 428.733,211.351 433.5,211C 435.838,213.11 435.671,215.277 433,217.5C 430.67,215.968 428.67,216.302 427,218.5C 425.696,224.423 425.196,230.423 425.5,236.5C 423.5,236.5 421.5,236.5 419.5,236.5C 419.5,227.833 419.5,219.167 419.5,210.5 Z"/></g>
<g><path style="opacity:0.055" fill="#a9a9a9" d="M 371.5,210.5 C 372.167,210.833 372.833,211.167 373.5,211.5C 372.012,214.186 371.345,213.853 371.5,210.5 Z"/></g>
<g><path style="opacity:0.345" fill="#858585" d="M 353.5,215.5 C 355.027,215.427 356.027,216.094 356.5,217.5C 354.973,217.573 353.973,216.906 353.5,215.5 Z"/></g>
<g><path style="opacity:0.004" fill="#fefffe" d="M 471.5,220.5 C 472.833,221.167 472.833,221.167 471.5,220.5 Z"/></g>
<g><path style="opacity:0.106" fill="#3a3a3a" d="M 368.5,210.5 C 367.53,219.082 367.197,227.749 367.5,236.5C 366.834,232.347 366.501,228.013 366.5,223.5C 366.508,218.778 367.175,214.445 368.5,210.5 Z"/></g>
<g><path style="opacity:0.016" fill="#939393" d="M 182.5,222.5 C 184.027,222.427 185.027,223.094 185.5,224.5C 183.973,224.573 182.973,223.906 182.5,222.5 Z"/></g>
<g><path style="opacity:0.349" fill="#747474" d="M 337.5,227.5 C 334.924,227.468 332.591,228.135 330.5,229.5C 332.239,226.585 334.572,225.919 337.5,227.5 Z"/></g>
<g><path style="opacity:0.278" fill="#8a8a8a" d="M 304.5,229.5 C 304.027,230.906 303.027,231.573 301.5,231.5C 301.973,230.094 302.973,229.427 304.5,229.5 Z"/></g>
<g><path style="opacity:0.247" fill="#8e8e8e" d="M 356.5,229.5 C 356.027,230.906 355.027,231.573 353.5,231.5C 353.973,230.094 354.973,229.427 356.5,229.5 Z"/></g>
<g><path style="opacity:0.392" fill="#747474" d="M 269.5,231.5 C 275.167,231.5 280.833,231.5 286.5,231.5C 286.784,233.415 286.451,235.081 285.5,236.5C 285.5,235.167 285.5,233.833 285.5,232.5C 279.974,232.821 274.64,232.488 269.5,231.5 Z"/></g>
<g><path style="opacity:0.006" fill="#e0e0e0" d="M 303.5,235.5 C 304.623,234.243 305.289,234.576 305.5,236.5C 304.833,236.167 304.167,235.833 303.5,235.5 Z"/></g>
<g><path style="opacity:0.004" fill="#bbbbbb" d="M 206.5,237.5 C 207.833,237.5 208.5,238.167 208.5,239.5C 207.5,239.167 206.833,238.5 206.5,237.5 Z"/></g>
<g><path style="opacity:0.004" fill="#fefffe" d="M 529.5,241.5 C 530.833,242.167 530.833,242.167 529.5,241.5 Z"/></g>
<g><path style="opacity:0.004" fill="#fefffe" d="M 500.5,242.5 C 501.833,243.167 501.833,243.167 500.5,242.5 Z"/></g>
<g><path style="opacity:0.004" fill="#fefffe" d="M 21.5,248.5 C 22.8333,249.167 22.8333,249.167 21.5,248.5 Z"/></g>
<g><path style="opacity:0.02" fill="#f7f7f7" d="M 207.5,244.5 C 208.496,259.658 208.83,274.991 208.5,290.5C 205.615,290.806 202.948,290.473 200.5,289.5C 202.833,289.5 205.167,289.5 207.5,289.5C 207.5,274.5 207.5,259.5 207.5,244.5 Z"/></g>
<g><path style="opacity:0.004" fill="#fefffe" d="M 456.5,250.5 C 457.833,251.167 457.833,251.167 456.5,250.5 Z"/></g>
<g><path style="opacity:0.11" fill="#272727" d="M 143.5,235.5 C 143.17,253.674 143.503,271.674 144.5,289.5C 144.44,290.043 144.107,290.376 143.5,290.5C 142.173,272.004 142.173,253.671 143.5,235.5 Z"/></g>
<g><path style="opacity:0.18" fill="#bebebe" d="M 136.5,240.5 C 136.56,239.957 136.893,239.624 137.5,239.5C 138.826,254.995 138.826,270.328 137.5,285.5C 137.829,270.324 137.496,255.324 136.5,240.5 Z"/></g>
<g><path style="opacity:0.004" fill="#fefffe" d="M 55.5,257.5 C 56.8333,258.167 56.8333,258.167 55.5,257.5 Z"/></g>
<g><path style="opacity:0.004" fill="#fefffe" d="M 542.5,275.5 C 543.833,276.167 543.833,276.167 542.5,275.5 Z"/></g>
<g><path style="opacity:0.004" fill="#fefffe" d="M 455.5,279.5 C 456.833,280.167 456.833,280.167 455.5,279.5 Z"/></g>
<g><path style="opacity:0.004" fill="#fefffe" d="M 473.5,286.5 C 474.833,287.167 474.833,287.167 473.5,286.5 Z"/></g>
<g><path style="opacity:0.184" fill="#232323" d="M 210.5,149.5 C 221.167,149.5 231.833,149.5 242.5,149.5C 242.5,198.167 242.5,246.833 242.5,295.5C 193.664,295.832 144.997,295.499 96.5,294.5C 144.833,294.5 193.167,294.5 241.5,294.5C 241.5,246.5 241.5,198.5 241.5,150.5C 230.986,150.828 220.653,150.494 210.5,149.5 Z"/></g>
<g><path style="opacity:0.004" fill="#fefffe" d="M 68.5,306.5 C 69.8333,307.167 69.8333,307.167 68.5,306.5 Z"/></g>
<g><path style="opacity:0.004" fill="#fefffe" d="M 456.5,308.5 C 457.833,309.167 457.833,309.167 456.5,308.5 Z"/></g>
<g><path style="opacity:0.004" fill="#fefffe" d="M 482.5,318.5 C 483.833,319.167 483.833,319.167 482.5,318.5 Z"/></g>
<g><path style="opacity:0.004" fill="#fefffe" d="M 47.5,330.5 C 48.8333,331.167 48.8333,331.167 47.5,330.5 Z"/></g>
<g><path style="opacity:0.004" fill="#fefffe" d="M 87.5,333.5 C 88.8333,334.167 88.8333,334.167 87.5,333.5 Z"/></g>
<g><path style="opacity:0.004" fill="#fefffe" d="M 476.5,339.5 C 477.833,340.167 477.833,340.167 476.5,339.5 Z"/></g>
<g><path style="opacity:0.004" fill="#fefffe" d="M 374.5,343.5 C 375.833,344.167 375.833,344.167 374.5,343.5 Z"/></g>
<g><path style="opacity:0.004" fill="#fefffe" d="M 425.5,355.5 C 426.833,356.167 426.833,356.167 425.5,355.5 Z"/></g>
<g><path style="opacity:0.004" fill="#fefffe" d="M 428.5,364.5 C 429.833,365.167 429.833,365.167 428.5,364.5 Z"/></g>
<g><path style="opacity:0.004" fill="#fefffe" d="M 513.5,373.5 C 514.833,374.167 514.833,374.167 513.5,373.5 Z"/></g>
<g><path style="opacity:0.004" fill="#fefffe" d="M 371.5,380.5 C 372.833,381.167 372.833,381.167 371.5,380.5 Z"/></g>
<g><path style="opacity:0.004" fill="#fefffe" d="M 236.5,385.5 C 237.833,386.167 237.833,386.167 236.5,385.5 Z"/></g>
<g><path style="opacity:0.004" fill="#fefffe" d="M 23.5,390.5 C 24.8333,391.167 24.8333,391.167 23.5,390.5 Z"/></g>
<g><path style="opacity:0.004" fill="#fefffe" d="M 100.5,396.5 C 101.833,397.167 101.833,397.167 100.5,396.5 Z"/></g>
<g><path style="opacity:0.004" fill="#fefffe" d="M 427.5,401.5 C 428.833,402.167 428.833,402.167 427.5,401.5 Z"/></g>
<g><path style="opacity:0.004" fill="#fefffe" d="M 242.5,408.5 C 243.833,409.167 243.833,409.167 242.5,408.5 Z"/></g>
<g><path style="opacity:0.004" fill="#fefffe" d="M 445.5,411.5 C 446.833,412.167 446.833,412.167 445.5,411.5 Z"/></g>
<g><path style="opacity:0.004" fill="#fefffe" d="M 11.5,420.5 C 12.8333,421.167 12.8333,421.167 11.5,420.5 Z"/></g>
<g><path style="opacity:0.004" fill="#fefffe" d="M 332.5,426.5 C 333.833,427.167 333.833,427.167 332.5,426.5 Z"/></g>
<g><path style="opacity:0.004" fill="#fefffe" d="M 202.5,427.5 C 203.833,428.167 203.833,428.167 202.5,427.5 Z"/></g>
<g><path style="opacity:0.004" fill="#fefffe" d="M 401.5,440.5 C 402.833,441.167 402.833,441.167 401.5,440.5 Z"/></g>
<g><path style="opacity:0.004" fill="#fefffe" d="M 350.5,446.5 C 351.833,447.167 351.833,447.167 350.5,446.5 Z"/></g>
<g><path style="opacity:0.004" fill="#fefffe" d="M 376.5,447.5 C 377.833,448.167 377.833,448.167 376.5,447.5 Z"/></g>
</svg>
